<?xml version="1.0" standalone="no"?>
<!DOCTYPE svg PUBLIC "-//W3C//DTD SVG 20010904//EN"
 "http://www.w3.org/TR/2001/REC-SVG-20010904/DTD/svg10.dtd">
<svg version="1.0" xmlns="http://www.w3.org/2000/svg"
 width="680.000000pt" height="488.000000pt" viewBox="0 0 680.000000 488.000000"
 preserveAspectRatio="xMidYMid meet">

<g transform="translate(0.000000,488.000000) scale(0.100000,-0.100000)"
fill="#000000" stroke="none">
<path d="M2773 4773 c4 -3 -1 -15 -10 -26 -14 -16 -15 -19 -3 -15 11 4 16 -2
17 -22 1 -20 -3 -29 -17 -33 -13 -3 -20 0 -20 9 0 8 -10 14 -21 14 -19 0 -20
-2 -8 -17 10 -11 10 -14 2 -9 -17 9 -17 -16 -1 -32 13 -13 14 -13 -23 -16 -16
-2 -26 2 -26 10 0 7 4 11 8 9 4 -3 10 2 13 11 8 21 8 39 0 31 -4 -3 -18 3 -32
13 -14 11 -27 18 -30 15 -7 -7 18 -35 30 -32 6 1 13 -4 15 -11 6 -14 -28 -4
-39 12 -5 7 -8 7 -8 -2 0 -7 7 -15 15 -18 8 -4 12 -10 9 -15 -3 -5 -14 -4 -26
2 -17 9 -20 9 -16 -2 3 -8 0 -19 -7 -25 -9 -9 -15 -6 -25 10 -12 19 -12 20 3
7 15 -12 17 -11 17 8 0 11 4 21 9 21 5 0 11 7 15 15 3 9 0 15 -10 15 -8 0 -18
-10 -23 -22 -5 -13 -10 -17 -15 -10 -3 6 -2 13 4 17 5 3 10 15 10 25 0 10 8
20 18 22 9 3 -2 5 -26 6 -24 0 -53 -3 -65 -8 -17 -7 -14 -8 18 -7 35 2 40 -1
37 -18 -2 -11 -8 -22 -13 -23 -5 -2 -6 -9 -2 -15 4 -6 0 -8 -10 -4 -10 3 -17
2 -17 -3 0 -6 7 -10 16 -10 11 0 14 -5 10 -16 -3 -9 -6 -18 -6 -20 0 -3 -5 -2
-10 1 -6 4 -8 -3 -6 -17 3 -13 5 -27 5 -31 1 -5 17 -6 36 -3 32 5 35 4 35 -19
0 -24 3 -25 60 -25 62 0 69 6 54 44 -5 13 -9 14 -20 5 -9 -7 -14 -8 -14 -1 0
17 30 23 36 7 9 -22 21 -18 28 9 5 19 12 24 32 21 14 -1 30 -9 35 -16 7 -12 9
-12 9 0 0 8 -8 19 -17 26 -16 12 -14 12 10 8 31 -6 35 9 15 52 -13 28 -34 35
-23 8 5 -15 4 -16 -7 -5 -11 11 -10 16 5 26 9 7 17 19 17 27 0 12 -2 12 -9 1
-6 -11 -9 -9 -13 6 -3 11 -1 25 5 31 8 8 4 11 -13 11 -13 0 -20 -3 -17 -7z
m-29 -129 c10 -25 -1 -29 -14 -5 -6 12 -7 21 -1 21 5 0 12 -7 15 -16z m-87
-76 c-3 -8 -6 -5 -6 6 -1 11 2 17 5 13 3 -3 4 -12 1 -19z"/>
<path d="M2700 4764 c0 -4 8 -13 18 -21 16 -13 15 -13 -7 -7 -18 4 -22 3 -16
-7 6 -9 4 -11 -8 -6 -9 3 -18 1 -21 -6 -2 -7 -5 -4 -5 6 -1 9 6 17 14 17 8 0
15 5 15 10 0 11 -13 11 -50 1 l-25 -7 22 -19 c22 -18 63 -28 63 -15 0 12 38 4
56 -11 17 -13 17 -13 1 12 -10 14 -14 29 -10 32 3 4 0 7 -8 8 -8 0 -6 4 6 9
17 7 15 9 -12 9 -18 1 -33 -2 -33 -5z"/>
<path d="M2450 4713 c-16 -6 -30 -23 -30 -36 0 -4 6 -3 13 3 6 6 21 17 32 25
20 14 13 18 -15 8z"/>
<path d="M2431 4644 c0 -11 3 -14 6 -6 3 7 2 16 -1 19 -3 4 -6 -2 -5 -13z"/>
<path d="M2686 4642 c-3 -5 1 -9 9 -9 8 0 12 4 9 9 -3 4 -7 8 -9 8 -2 0 -6 -4
-9 -8z"/>
<path d="M3053 4643 c9 -2 23 -2 30 0 6 3 -1 5 -18 5 -16 0 -22 -2 -12 -5z"/>
<path d="M2966 4631 c-11 -4 -15 -10 -10 -13 5 -4 18 0 29 8 20 15 12 17 -19
5z"/>
<path d="M2914 4621 c-5 -5 -18 -11 -29 -14 -11 -2 -1 -4 22 -4 23 1 39 4 35
7 -4 3 -10 8 -13 12 -3 4 -10 4 -15 -1z"/>
<path d="M2840 4610 c-13 -8 -12 -10 3 -10 9 0 17 5 17 10 0 12 -1 12 -20 0z"/>
<path d="M3058 4613 c12 -2 30 -2 40 0 9 3 -1 5 -23 4 -22 0 -30 -2 -17 -4z"/>
<path d="M3131 4611 c-11 -7 -11 -9 0 -14 10 -4 10 -6 2 -6 -7 -1 -13 -8 -13
-16 0 -11 11 -15 40 -15 34 0 40 -3 40 -21 0 -18 6 -20 58 -19 86 2 84 3 72
-20 -9 -17 -8 -20 9 -20 14 0 19 5 15 15 -4 8 -1 15 5 15 6 0 11 -8 12 -17 0
-11 3 -13 6 -5 5 14 57 -13 100 -51 12 -11 33 -21 47 -22 14 -2 30 -6 35 -10
6 -3 11 -4 11 -1 0 10 -70 47 -80 41 -5 -3 -10 -3 -10 2 0 19 -204 122 -232
117 -13 -2 -17 -1 -10 2 9 4 0 15 -28 31 -23 14 -44 22 -47 19 -3 -3 6 -10 20
-15 14 -5 29 -16 33 -23 6 -10 4 -10 -9 1 -9 7 -26 11 -37 8 -11 -3 -18 -1
-14 4 3 5 0 9 -6 9 -6 0 -8 5 -5 10 8 12 4 12 -14 1z m176 -77 c-3 -3 -12 -4
-19 -1 -8 3 -5 6 6 6 11 1 17 -2 13 -5z"/>
<path d="M2758 4583 c6 -2 9 -10 6 -15 -4 -7 -2 -8 5 -4 13 9 5 26 -12 25 -9
0 -8 -2 1 -6z"/>
<path d="M2430 4520 c8 -5 24 -10 34 -10 26 0 18 6 -19 14 -22 5 -26 4 -15 -4z"/>
<path d="M2585 4471 l-30 -7 38 -14 c20 -8 37 -20 37 -27 0 -7 4 -13 9 -13 5
0 16 -3 25 -6 10 -4 16 -1 16 9 0 9 -9 19 -20 22 -11 3 -20 15 -20 26 0 20 -6
21 -55 10z"/>
<path d="M3600 4380 c0 -5 5 -10 11 -10 5 0 7 5 4 10 -3 6 -8 10 -11 10 -2 0
-4 -4 -4 -10z"/>
<path d="M3635 4361 c4 -23 -19 -30 -29 -8 -5 9 -7 9 -12 -1 -5 -10 -9 -10
-20 -1 -10 8 -14 8 -14 0 0 -6 -5 -11 -11 -11 -5 0 -7 5 -3 11 4 7 -2 6 -17
-1 -23 -13 -23 -13 -2 -21 15 -5 19 -14 16 -32 -3 -14 1 -28 8 -32 9 -6 10 -3
6 9 -5 14 -3 17 8 12 8 -3 14 0 12 6 -1 7 6 12 16 13 10 0 22 7 27 15 7 11 10
11 10 2 0 -7 5 -10 12 -6 7 4 8 3 4 -5 -4 -6 -10 -9 -14 -7 -4 2 -16 -2 -27
-10 -10 -8 -15 -15 -9 -15 31 -4 40 -3 46 6 5 6 8 5 8 -2 0 -7 5 -13 10 -13 7
0 7 6 0 20 -6 11 -7 20 -3 20 4 0 2 5 -5 12 -8 8 -8 15 -2 23 7 9 6 16 -4 25
-13 10 -15 8 -11 -9z m-33 -43 c-7 -7 -12 -8 -12 -2 0 6 3 14 7 17 3 4 9 5 12
2 2 -3 -1 -11 -7 -17z m-30 -10 c-7 -7 -12 -8 -12 -2 0 6 3 14 7 17 3 4 9 5
12 2 2 -3 -1 -11 -7 -17z"/>
<path d="M3360 4313 c0 -6 6 -14 13 -16 10 -4 10 -6 0 -6 -7 -1 -13 -8 -13
-17 0 -14 2 -15 18 -3 15 12 16 12 5 -2 -7 -9 -9 -20 -5 -25 4 -4 0 -3 -9 4
-9 6 -20 8 -24 4 -5 -4 -5 1 -2 11 4 9 2 17 -3 17 -6 0 -10 -7 -10 -16 0 -8
-5 -12 -10 -9 -6 4 -7 11 -4 17 4 6 -1 6 -14 -1 -15 -8 -22 -8 -25 2 -4 8 -6
9 -6 0 -1 -6 5 -18 13 -26 12 -11 12 -15 -3 -23 -21 -12 -66 -12 -66 1 0 6 3
9 8 8 4 -2 7 4 7 13 0 11 -5 14 -16 10 -13 -5 -14 -3 -6 6 8 10 2 13 -25 15
-27 2 -33 -1 -25 -9 7 -7 12 -17 12 -22 0 -6 -4 -5 -9 3 -5 7 -11 9 -14 4 -7
-11 19 -53 33 -53 4 0 6 10 3 23 -5 22 -5 22 10 2 8 -11 14 -27 12 -36 -2 -12
4 -15 23 -13 15 1 29 3 32 4 3 1 9 2 13 1 5 -1 6 3 2 9 -3 5 1 10 10 10 9 0
13 -4 10 -10 -3 -5 -4 -10 -1 -10 3 0 12 15 20 33 7 19 21 34 29 34 17 0 30
-23 22 -37 -3 -5 4 -14 15 -20 11 -6 20 -18 20 -26 0 -12 5 -14 18 -9 9 4 29
10 45 13 15 2 27 11 27 19 0 8 -4 12 -8 9 -4 -2 -8 5 -9 17 0 12 1 16 4 9 3
-6 9 -10 14 -6 5 3 9 2 8 -3 -3 -19 2 -33 12 -33 7 0 9 10 7 24 -3 17 -1 23 8
19 7 -2 10 -12 7 -21 -6 -15 -4 -15 14 1 11 9 25 17 31 17 7 0 12 4 12 9 0 5
2 16 5 24 4 8 0 14 -9 14 -8 0 -13 -4 -10 -9 3 -4 -4 -8 -16 -8 -12 0 -24 9
-29 23 -5 13 -17 29 -27 37 -11 9 -15 10 -10 3 4 -7 3 -13 -1 -13 -5 0 -15 6
-22 13 -11 10 -14 10 -18 0 -3 -7 -11 -13 -18 -13 -7 0 -16 6 -18 13 -3 7 -6
4 -6 -7 -1 -16 4 -18 33 -13 21 3 38 1 44 -6 12 -18 9 -52 -6 -52 -17 0 -32
-25 -25 -42 3 -8 -2 -13 -15 -13 -11 0 -22 -3 -25 -7 -2 -5 -3 -3 -1 3 1 6 -3
17 -9 24 -9 10 -9 11 0 6 6 -3 14 -2 18 4 4 6 11 8 16 5 8 -6 13 8 10 28 0 4
8 7 19 7 17 0 19 3 11 19 -8 15 -17 17 -43 12 -27 -6 -36 -2 -55 19 -12 14
-23 20 -23 13z m164 -45 c9 -17 14 -34 11 -36 -3 -3 -5 0 -5 7 0 7 -5 9 -12 5
-7 -4 -8 -3 -4 4 4 7 3 12 -1 12 -5 0 -9 9 -10 20 -2 28 3 25 21 -12z m-84
-19 c0 -11 -4 -17 -10 -14 -5 3 -10 1 -10 -4 0 -6 -5 -11 -11 -11 -6 0 -7 5
-2 13 4 6 8 15 9 20 3 15 4 17 14 17 6 0 10 -9 10 -21z m-187 -55 c-3 -9 -23
-13 -36 -6 -4 2 -5 7 -2 12 7 11 41 6 38 -6z"/>
<path d="M3230 4272 c0 -7 5 -12 10 -12 7 0 7 -7 0 -22 -10 -21 -10 -22 4 -5
14 18 14 18 19 0 4 -14 5 -14 6 -2 0 9 -8 24 -19 34 -11 10 -20 13 -20 7z"/>
<path d="M3606 4254 c-9 -23 -7 -34 5 -34 6 0 9 7 5 15 -3 8 -1 15 4 15 6 0
10 5 10 10 0 16 -17 12 -24 -6z"/>
<path d="M3636 4255 c-3 -9 2 -13 15 -12 22 2 25 13 5 20 -8 3 -17 0 -20 -8z"/>
<path d="M3119 4243 c-1 -4 -1 -12 0 -17 1 -5 -5 -4 -13 4 -11 8 -16 9 -16 1
0 -6 -5 -11 -11 -11 -5 0 -7 5 -3 12 4 6 3 8 -4 5 -11 -8 -11 -25 1 -43 8 -13
-1 -24 -20 -24 -9 0 -11 8 -7 25 5 18 2 25 -9 25 -8 0 -18 6 -20 13 -6 12 -11
-16 -8 -43 2 -13 1 -13 -8 0 -6 8 -8 24 -6 35 3 11 2 14 -1 7 -3 -6 -9 -10
-14 -7 -4 3 -6 -3 -3 -14 3 -10 0 -22 -6 -25 -7 -4 -9 -1 -5 8 3 9 -3 17 -18
22 -22 7 -22 7 -3 15 l20 9 -20 -3 c-11 -2 -19 -9 -17 -15 1 -7 -2 -21 -8 -32
-7 -12 -7 -21 0 -25 5 -3 10 3 10 14 0 12 5 21 10 21 13 0 13 -37 0 -45 -6 -4
-8 -12 -4 -18 3 -7 -1 -4 -9 5 -11 14 -16 15 -27 5 -12 -10 -12 -9 -2 4 10 14
10 18 -3 23 -9 3 -13 2 -10 -4 3 -6 1 -10 -5 -10 -6 0 -8 -5 -4 -12 4 -6 3 -8
-4 -5 -18 12 -2 49 19 44 11 -3 19 -1 19 4 0 5 -18 9 -40 9 -22 0 -40 -5 -40
-11 0 -5 -5 -7 -12 -3 -7 5 -8 3 -3 -6 6 -10 2 -11 -19 -6 -15 4 -26 2 -26 -4
0 -9 15 -14 34 -11 5 1 6 -5 3 -13 -5 -13 -3 -14 12 -4 10 6 18 18 17 26 0 8
6 17 14 20 12 4 13 3 3 -10 -7 -8 -10 -18 -6 -21 3 -4 -2 -9 -11 -13 -18 -7
-22 -34 -5 -34 5 0 8 4 5 8 -2 4 5 9 17 9 19 2 18 0 -7 -16 -17 -11 -24 -21
-17 -25 6 -4 23 6 38 21 18 19 24 22 20 10 -4 -10 -7 -25 -7 -33 0 -9 -5 -12
-12 -8 -6 4 -8 3 -5 -3 3 -5 37 -9 74 -9 60 1 68 3 70 21 2 11 0 14 -3 8 -3
-7 -12 -13 -21 -13 -13 0 -13 2 1 15 20 21 36 19 36 -4 0 -16 7 -20 40 -19 22
0 38 4 35 8 -2 3 2 7 10 7 8 0 12 -4 8 -10 -7 -11 58 -6 74 6 7 5 17 6 22 3 5
-4 12 -2 16 4 4 6 11 8 16 5 5 -4 9 -2 9 2 0 5 14 10 31 11 17 1 41 8 53 14
11 7 24 11 29 10 4 -1 7 6 7 16 0 14 2 15 10 2 6 -10 10 -11 10 -2 0 6 -9 21
-21 33 -11 11 -18 26 -16 33 3 7 -1 13 -8 13 -11 0 -11 -5 -4 -20 13 -22 2
-37 -29 -40 -11 0 -18 -5 -16 -9 3 -5 10 -5 16 -2 7 5 8 2 4 -5 -5 -7 -15 -10
-23 -7 -21 8 -39 -4 -22 -15 10 -6 10 -9 2 -9 -20 0 -26 21 -8 34 14 10 11 12
-19 12 -20 0 -36 -4 -36 -9 0 -4 -6 -2 -14 5 -8 7 -11 18 -8 23 3 6 2 7 -3 3
-5 -5 -15 1 -22 12 -8 11 -19 17 -25 14 -7 -5 -9 -1 -5 9 3 9 2 19 -3 22 -6 4
-11 3 -11 -2z m-85 -48 c-4 -8 -7 -15 -9 -15 -2 0 -5 7 -9 15 -3 9 0 15 9 15
9 0 12 -6 9 -15z m86 0 c0 -8 -6 -17 -12 -21 -7 -4 -10 -4 -6 1 4 4 1 13 -8
19 -13 10 -13 12 5 13 12 1 21 -4 21 -12z m37 -15 c9 -14 10 -21 1 -26 -7 -4
-8 -3 -4 4 4 7 3 12 -2 12 -6 0 -12 7 -16 15 -8 22 7 18 21 -5z m-189 -35 c-1
-14 -9 -25 -18 -26 -10 0 -11 -2 -2 -6 17 -7 42 15 36 31 -3 8 2 16 12 20 13
5 15 2 11 -13 -3 -12 0 -18 7 -15 6 2 16 -7 23 -21 13 -28 6 -33 -12 -9 -10
15 -16 15 -48 3 -20 -7 -37 -18 -37 -24 0 -5 -5 -3 -10 5 -8 13 -10 13 -10 -2
0 -11 -5 -15 -15 -12 -22 9 -18 21 11 36 15 7 26 16 25 21 -1 6 20 36 26 37 2
0 2 -11 1 -25z m151 -16 c6 -18 6 -29 0 -29 -5 0 -9 9 -9 20 0 14 -5 18 -16
13 -11 -4 -12 -8 -4 -13 9 -5 9 -9 1 -14 -11 -7 -16 8 -11 29 1 6 3 15 3 22 1
21 25 2 36 -28z m20 11 c11 -24 11 -24 -3 -6 -9 11 -16 24 -16 30 0 12 5 7 19
-24z m-69 11 c0 -19 -20 -22 -36 -7 -14 15 -13 16 10 16 14 0 26 -4 26 -9z
m126 -36 c1 -8 -2 -13 -7 -9 -5 3 -10 -3 -10 -13 -1 -17 -2 -17 -6 0 -3 10
-10 14 -16 11 -7 -4 -8 -3 -4 2 5 5 14 9 20 9 7 1 11 7 9 15 -2 8 0 11 4 7 4
-4 9 -14 10 -22z m-128 -20 c-3 -3 -9 2 -12 12 -6 14 -5 15 5 6 7 -7 10 -15 7
-18z"/>
<path d="M2790 4230 c0 -5 -6 -10 -14 -10 -8 0 -25 -13 -39 -29 -14 -17 -27
-28 -29 -26 -5 5 0 -46 8 -84 4 -20 7 -22 15 -10 7 11 11 11 17 1 5 -7 27 -12
56 -11 27 2 42 6 34 10 -6 4 -16 5 -20 3 -4 -3 -8 2 -8 10 0 10 -6 13 -17 10
-15 -5 -15 -3 2 11 20 17 19 17 -8 12 -27 -4 -27 -4 -10 16 14 16 15 19 3 15
-11 -4 -16 1 -17 14 -1 12 6 22 16 25 12 3 19 14 19 29 0 13 -2 24 -4 24 -2 0
-4 -4 -4 -10z m-24 -41 c-14 -11 -23 -25 -20 -31 4 -7 2 -8 -4 -4 -15 9 16 55
37 56 7 0 2 -9 -13 -21z m-19 -55 c-3 -3 -12 -4 -19 -1 -8 3 -5 6 6 6 11 1 17
-2 13 -5z"/>
<path d="M3316 4195 c-3 -9 0 -15 9 -15 16 0 20 16 6 24 -5 3 -11 -1 -15 -9z"/>
<path d="M2348 4193 c7 -3 16 -2 19 1 4 3 -2 6 -13 5 -11 0 -14 -3 -6 -6z"/>
<path d="M2380 4191 c0 -6 4 -13 10 -16 6 -3 7 1 4 9 -7 18 -14 21 -14 7z"/>
<path d="M3428 4193 c7 -3 16 -2 19 1 4 3 -2 6 -13 5 -11 0 -14 -3 -6 -6z"/>
<path d="M3646 4122 c-6 -40 -33 -62 -76 -62 -21 0 -105 -25 -130 -39 -9 -5
-31 -11 -50 -15 -19 -4 -78 -20 -130 -36 -52 -16 -132 -41 -177 -55 -45 -14
-93 -25 -105 -25 -13 0 -57 -13 -98 -30 -99 -39 -132 -39 -181 3 -74 61 -140
130 -131 136 4 3 8 16 8 28 0 20 -2 21 -17 7 -14 -12 -18 -13 -22 -2 -4 10 -6
10 -6 1 -1 -7 -6 -13 -12 -13 -5 0 -7 5 -3 12 5 7 3 8 -5 3 -8 -4 -23 4 -41
24 -16 17 -36 31 -44 31 -9 0 -16 6 -16 13 0 10 -16 13 -57 11 -31 -1 -68 2
-81 7 -15 6 -21 5 -17 -1 3 -6 3 -15 -1 -21 -4 -8 -9 -7 -15 2 -6 10 -9 8 -9
-8 0 -13 5 -23 11 -23 6 0 10 -10 9 -22 -4 -44 -1 -51 14 -39 12 10 17 8 25
-7 6 -11 7 -23 3 -27 -4 -5 -1 -5 6 -1 7 4 12 2 12 -5 0 -7 3 -10 6 -7 3 4 1
15 -5 26 -9 17 -7 19 17 16 54 -4 58 -5 45 -11 -7 -2 -13 -9 -13 -15 0 -6 6
-8 13 -5 8 3 14 -1 14 -9 0 -7 -4 -11 -8 -8 -4 2 -10 0 -13 -5 -3 -4 14 -11
38 -14 64 -9 115 -45 117 -82 1 -17 3 -23 6 -12 6 21 46 23 67 2 8 -8 19 -15
25 -15 6 0 11 -3 11 -7 0 -5 27 -26 60 -48 56 -38 60 -42 60 -81 0 -60 21
-208 30 -218 10 -10 83 6 201 45 48 16 94 29 102 29 23 0 33 25 40 93 3 32 11
64 17 72 6 7 10 19 9 27 -1 7 -1 34 0 60 1 45 3 49 38 63 21 9 57 19 80 22 43
6 51 -1 44 -40 -1 -4 3 -16 8 -25 5 -10 13 -45 16 -77 9 -76 13 -96 20 -103 7
-8 88 13 221 56 l111 35 7 66 c17 176 25 226 35 229 14 5 15 82 1 82 -6 0 -23
11 -38 25 -15 14 -30 25 -33 25 -4 0 -9 -17 -13 -38z m3 -139 c0 -5 -6 -24
-13 -42 -14 -38 -25 -31 -33 20 -4 26 -1 29 21 29 14 0 26 -3 25 -7z m-33
-136 c-9 -57 -15 -63 -84 -80 -37 -10 -77 -20 -89 -23 -20 -5 -23 -2 -23 20 0
15 6 26 14 26 7 0 25 9 40 21 22 17 35 20 72 14 44 -6 46 -5 57 24 15 40 20
39 13 -2z m-762 -122 c18 -38 36 -44 60 -20 10 11 33 15 75 14 l60 -2 -5 -36
c-9 -63 -14 -70 -52 -77 -20 -4 -60 -15 -89 -25 l-52 -17 -10 31 c-22 61 -26
167 -7 167 2 0 11 -16 20 -35z"/>
<path d="M2488 4104 c-6 -22 12 -28 29 -9 4 4 3 5 -4 1 -7 -3 -13 1 -15 11 -3
15 -5 15 -10 -3z"/>
<path d="M2544 4082 c3 -5 0 -13 -6 -15 -9 -4 -10 -6 -1 -6 17 -1 25 16 12 25
-7 4 -9 3 -5 -4z"/>
<path d="M2600 4036 c7 -7 13 -7 20 0 6 6 3 10 -10 10 -13 0 -16 -4 -10 -10z"/>
<path d="M2276 3908 c3 -5 10 -6 15 -3 13 9 11 12 -6 12 -8 0 -12 -4 -9 -9z"/>
<path d="M2305 3889 c-4 -6 -5 -12 -2 -15 2 -3 7 2 10 11 7 17 1 20 -8 4z"/>
<path d="M2286 3748 c3 -5 10 -6 15 -3 13 9 11 12 -6 12 -8 0 -12 -4 -9 -9z"/>
<path d="M2240 3464 c-98 -25 -270 -45 -270 -32 0 17 -47 7 -82 -17 -20 -14
-41 -25 -45 -25 -4 0 -25 -16 -47 -35 -21 -19 -44 -35 -51 -35 -7 0 -15 -4
-17 -9 -1 -4 -39 -32 -83 -62 -44 -29 -82 -56 -85 -60 -3 -3 -28 -21 -56 -38
-50 -30 -64 -51 -64 -98 0 -13 -4 -23 -9 -23 -5 0 -15 -37 -24 -82 -8 -46 -24
-131 -35 -189 -21 -113 -20 -154 5 -164 9 -3 48 -10 87 -15 39 -5 114 -19 166
-30 52 -11 120 -22 151 -25 l56 -6 7 -91 c3 -50 6 -151 6 -225 0 -120 -2 -133
-17 -133 -10 0 -51 -7 -90 -17 l-73 -17 0 -42 c0 -37 3 -43 30 -54 17 -7 30
-16 30 -20 0 -4 27 -18 60 -31 l60 -24 0 -359 c0 -198 2 -357 4 -355 3 2 6
179 7 393 1 285 5 389 14 392 6 3 25 6 41 7 23 2 30 -2 32 -20 2 -14 10 -23
20 -23 10 0 29 -8 42 -17 14 -10 35 -16 47 -15 13 2 23 -1 23 -6 0 -6 11 -9
25 -7 14 1 27 -1 30 -4 2 -4 -8 -8 -22 -9 -38 -3 -43 -10 -43 -58 0 -24 -3
-44 -6 -44 -10 0 -49 23 -55 33 -4 5 -12 6 -19 2 -16 -10 -7 -250 11 -271 10
-12 9 -13 -4 -8 -13 5 -15 1 -10 -18 6 -22 5 -363 0 -464 -3 -38 0 -51 9 -47
9 3 11 32 9 101 -2 79 -1 86 4 37 4 -33 8 -54 9 -46 1 8 4 12 7 9 3 -3 2 -24
-4 -47 -5 -24 -5 -43 0 -47 9 -5 13 8 10 37 -1 8 3 26 8 40 7 19 8 16 6 -21
-3 -51 3 -69 17 -49 8 11 9 11 5 -1 -2 -8 -10 -14 -17 -12 -7 2 -17 -3 -21
-10 -7 -11 -9 -11 -9 0 0 7 -5 10 -10 7 -8 -5 -7 -12 2 -23 10 -14 10 -15 -2
-4 -21 18 -35 15 -19 -5 8 -9 9 -14 3 -10 -8 5 -12 -7 -12 -36 1 -228 -3 -298
-14 -291 -10 6 -10 4 0 -8 9 -11 10 -18 2 -23 -5 -3 -7 -18 -4 -32 5 -19 4
-24 -5 -18 -7 4 -10 9 -7 12 8 9 -40 43 -61 44 -10 0 -13 3 -5 6 7 3 27 0 44
-6 30 -11 31 -10 14 8 -10 11 -25 16 -41 14 -21 -4 -24 -1 -28 28 -3 25 -4 21
-5 -17 -1 -28 -5 -65 -8 -81 -5 -27 -2 -32 34 -51 22 -11 50 -27 61 -34 20
-12 72 -6 174 22 l37 11 0 350 c0 193 -4 348 -8 345 -5 -3 -9 1 -9 9 0 8 4 12
9 9 4 -3 8 111 8 252 0 201 3 255 12 246 7 -7 18 -12 26 -12 7 0 28 -11 45
-24 l32 -25 0 52 0 52 65 7 c138 16 150 17 150 10 0 -4 14 -9 31 -10 17 -1 44
-9 61 -18 28 -15 135 -28 228 -28 72 0 240 44 240 63 0 14 2 14 10 1 8 -12 10
-10 10 10 0 19 2 22 10 10 6 -10 8 -1 7 28 -1 23 -3 42 -4 42 -1 0 -7 -10 -14
-21 -9 -17 -8 -20 2 -14 8 5 10 4 5 -3 -9 -15 -11 -15 -27 5 -10 11 -10 14 -1
9 6 -4 12 -2 12 3 0 6 -7 11 -15 11 -15 0 -22 39 -7 41 4 0 14 2 22 4 8 2 42
9 75 15 33 6 88 17 121 24 54 11 63 11 72 -3 10 -14 11 -13 6 4 -5 18 -4 18 8
4 9 -11 29 -16 62 -16 30 0 51 -5 57 -14 7 -11 9 -11 9 -1 0 15 41 13 52 -3 5
-6 8 -4 8 5 0 13 1 13 10 0 7 -11 10 -11 10 -2 0 8 5 10 13 5 21 -13 38 -12
44 2 4 12 9 12 29 -2 19 -12 27 -13 39 -3 8 7 15 9 15 5 0 -4 7 -2 15 5 8 7
15 9 15 5 0 -4 6 -2 14 4 11 9 16 9 22 0 5 -8 3 -9 -6 -4 -8 5 -11 4 -7 -3 8
-11 25 -11 45 1 6 5 12 5 13 0 0 -4 4 1 9 12 8 19 9 19 9 1 1 -20 1 -20 15 0
13 16 15 17 21 3 9 -24 33 -19 29 5 -3 12 -2 15 2 9 9 -19 34 -16 35 5 0 14 2
14 7 2 10 -21 32 -23 33 -3 0 15 2 15 9 -2 l9 -20 1 20 1 20 9 -20 9 -20 1 20
c2 11 2 24 1 29 -1 5 5 6 14 2 9 -3 19 -6 21 -6 3 0 3 -4 0 -9 -7 -11 13 -9
32 2 7 5 9 13 6 19 -4 7 -2 8 5 4 6 -4 9 -11 6 -16 -3 -5 0 -12 6 -16 7 -4 9
-3 6 3 -4 6 -1 16 7 22 11 9 18 8 30 -4 15 -15 16 -14 17 12 l1 28 8 -25 c7
-21 8 -22 10 -5 1 20 2 20 9 1 7 -19 8 -18 14 5 7 23 8 23 22 5 8 -11 15 -14
15 -7 0 7 4 10 9 6 5 -3 13 0 17 6 5 8 3 9 -6 4 -9 -6 -11 -4 -6 4 5 7 11 10
14 7 3 -3 11 -1 18 5 8 7 14 7 19 -1 4 -6 1 -9 -6 -8 -6 2 -13 -3 -14 -10 -2
-7 -1 -8 2 -2 2 5 9 7 15 4 5 -3 12 3 15 15 3 11 9 18 14 15 5 -3 7 -9 5 -13
-3 -4 7 -7 21 -6 15 0 28 7 31 15 3 13 2 12 -7 0 -7 -9 -11 -10 -11 -3 0 16
17 26 25 13 4 -6 11 -8 16 -5 5 4 9 0 9 -7 0 -8 3 -9 8 -3 4 6 16 11 27 10 12
0 22 9 26 25 6 20 7 21 8 5 1 -17 3 -17 11 -5 9 13 10 13 11 0 0 -10 3 -8 8 5
9 23 31 26 47 7 8 -12 12 -11 23 2 16 19 10 52 -9 48 -11 -3 -11 0 0 12 14 17
25 22 15 7 -3 -5 -1 -12 5 -16 6 -4 10 4 10 19 0 14 -8 30 -17 35 -16 9 -15
10 6 11 22 0 23 -3 19 -45 -3 -25 -2 -48 3 -51 5 -3 6 3 2 12 -3 10 -2 15 3
12 5 -4 7 13 5 38 -1 25 1 44 5 43 5 -2 36 3 69 10 81 18 76 17 115 25 64 12
99 13 103 3 2 -6 11 -11 20 -13 9 -1 15 2 11 7 -3 5 0 9 5 9 6 0 11 -6 11 -12
0 -10 3 -9 9 1 6 9 11 10 15 2 11 -17 26 -13 27 7 0 11 2 12 6 4 4 -10 8 -10
21 0 9 7 13 8 9 2 -3 -6 0 -11 8 -11 8 0 13 2 10 5 -2 2 3 11 11 19 8 8 11 20
7 26 -4 6 0 8 9 4 9 -3 21 0 27 6 6 6 35 14 63 18 29 4 98 17 153 29 55 12
138 30 185 40 l85 17 -45 21 c-25 12 -63 31 -85 43 -86 46 -87 46 -140 32 -28
-7 -64 -13 -81 -13 -17 0 -53 -7 -81 -15 l-50 -15 -6 -66 c-4 -37 -8 -68 -9
-70 -2 -1 -23 -5 -48 -9 -25 -4 -65 -10 -90 -15 -25 -5 -45 -8 -46 -7 -7 23
-39 57 -49 53 -9 -3 -12 0 -8 9 3 9 -3 18 -13 22 -11 3 -22 11 -26 16 -4 7
-27 5 -65 -3 -32 -7 -77 -15 -101 -17 -33 -4 -43 -10 -48 -27 -3 -12 -18 -30
-35 -40 -16 -9 -29 -24 -29 -32 0 -8 -7 -14 -15 -14 -9 0 -18 -6 -21 -14 -3
-8 -12 -12 -20 -9 -8 3 -14 2 -13 -3 3 -20 -2 -34 -12 -34 -6 0 -8 10 -5 23
l6 22 -11 -22 c-13 -26 -55 -33 -46 -8 4 8 1 17 -5 21 -6 4 -8 3 -5 -3 4 -6 0
-19 -8 -29 -11 -14 -14 -15 -15 -5 0 11 -4 9 -14 -5 -8 -10 -18 -15 -22 -11
-5 4 -2 12 6 17 11 7 11 10 2 10 -7 0 -15 -7 -18 -15 -4 -8 -10 -12 -15 -9 -5
3 -17 -2 -26 -11 -15 -16 -17 -15 -30 9 -8 14 -18 26 -24 26 -6 0 -3 -7 5 -16
22 -22 20 -31 -10 -38 -18 -5 -30 -1 -42 11 -9 10 -14 14 -10 9 9 -11 -40 -38
-53 -30 -6 3 -7 15 -3 26 4 14 2 18 -5 14 -6 -4 -11 -17 -11 -30 0 -12 -6 -23
-12 -24 -45 -3 -87 -11 -113 -22 -16 -6 -50 -13 -75 -15 -25 -2 -55 -6 -67
-10 -15 -5 -23 -3 -23 5 0 7 -6 6 -16 -4 -10 -11 -21 -13 -32 -8 -9 5 -28 5
-42 1 -25 -9 -25 -9 3 -5 15 2 27 -1 27 -5 0 -5 -8 -9 -17 -9 -44 -1 -99 -13
-105 -23 -4 -7 -11 -7 -22 2 -11 9 -16 10 -16 2 0 -8 -5 -8 -19 1 -11 6 -17
19 -14 27 4 14 4 14 -6 1 -15 -21 -14 -30 6 -30 9 0 13 -3 10 -6 -5 -6 -61
-12 -145 -17 -7 0 -11 -6 -8 -14 7 -18 -19 -17 -34 2 -18 22 -32 18 -25 -6 7
-22 6 -22 -81 -15 -63 5 -104 15 -144 33 -30 15 -57 29 -60 33 -3 4 -13 9 -23
13 -10 4 -16 10 -14 14 3 5 -6 9 -20 10 -14 0 -29 7 -34 15 -5 7 -9 9 -9 5 0
-4 -6 -2 -14 5 -9 8 -10 15 -4 19 6 4 7 12 3 19 -6 9 -9 9 -16 -1 -7 -11 -9
-9 -10 6 l0 20 -9 -20 c-8 -18 -9 -18 -10 5 0 22 -2 23 -11 8 -5 -10 -18 -18
-27 -17 -14 0 -14 2 -2 7 26 12 20 29 -8 24 -18 -2 -35 4 -49 18 -29 26 -29
31 2 64 32 34 31 36 -3 27 -15 -5 -90 -14 -167 -21 -110 -10 -144 -17 -161
-31 -20 -19 -39 -26 -30 -11 2 4 1 14 -5 22 -7 12 -9 10 -9 -8 0 -14 -9 -26
-22 -32 -34 -13 -287 -44 -296 -36 -4 4 -9 88 -10 186 l-4 178 59 7 c32 4 90
14 128 24 l70 16 1 60 c0 33 -3 65 -6 70 -10 16 -10 54 0 60 5 3 21 -2 35 -11
14 -9 29 -14 33 -10 9 9 -40 46 -51 39 -12 -7 -27 17 -20 32 3 9 12 5 29 -12
27 -27 44 -23 44 10 0 49 -11 66 -44 69 -23 2 -32 8 -34 26 -3 23 21 32 33 12
3 -5 16 -10 28 -10 22 0 22 1 -2 19 -14 11 -34 17 -45 14 -12 -3 -43 -9 -71
-13 -27 -5 -72 -13 -99 -20 -74 -17 -77 -13 -53 69 16 56 24 71 39 71 11 0 62
10 114 22 82 19 95 25 100 45 7 26 8 27 36 12 18 -10 20 -9 15 6 -4 9 -7 19
-7 21 0 2 -7 4 -16 4 -9 0 -14 6 -11 13 2 6 13 11 23 10 10 -1 22 4 26 10 14
22 8 70 -9 84 -10 8 -13 12 -8 9 6 -2 17 -1 25 4 12 7 11 12 -5 30 -26 28 -8
44 29 25 16 -8 33 -15 38 -15 6 0 30 -13 55 -30 24 -16 50 -30 58 -30 8 0 18
-6 22 -13 10 -15 57 -37 82 -37 9 0 27 -9 39 -20 11 -11 24 -16 27 -11 3 6 14
8 24 6 11 -2 22 2 25 10 3 8 23 13 55 13 27 1 67 5 88 10 92 23 94 24 91 6 -2
-9 3 -19 10 -22 9 -3 13 3 10 18 -2 13 3 25 10 27 7 3 12 -4 12 -16 0 -12 4
-21 10 -21 5 0 7 -12 4 -27 -3 -16 -1 -40 5 -55 9 -23 16 -27 45 -26 24 1 36
7 39 19 3 13 11 16 27 12 20 -5 21 -3 18 38 -3 41 -5 44 -31 42 -18 -1 -27 2
-24 10 2 7 11 11 21 9 14 -3 18 3 15 25 -1 8 26 23 52 28 18 4 19 2 8 -11 -11
-14 -10 -16 11 -14 40 3 52 1 45 -10 -4 -6 -14 -9 -23 -8 -14 2 -18 -7 -20
-44 -3 -43 -1 -48 17 -48 12 0 21 4 21 8 0 5 14 7 30 4 34 -5 39 -17 10 -25
-20 -5 -29 -37 -10 -37 6 0 7 -22 4 -55 -5 -49 -4 -55 13 -55 10 0 14 -4 8 -8
-5 -4 -10 -20 -10 -36 0 -16 -6 -31 -12 -33 -9 -3 -13 10 -14 44 -1 26 -4 59
-8 73 -7 24 -7 24 -14 -8 -4 -19 -2 -42 3 -52 15 -28 12 -70 -5 -76 -21 -8
-19 -22 3 -20 14 1 17 -7 17 -49 -1 -29 -5 -48 -10 -45 -6 3 -9 8 -8 13 2 4
-1 7 -6 7 -5 0 -12 -8 -14 -17 -3 -11 -5 -7 -6 10 -1 17 -7 27 -16 27 -8 0
-15 5 -15 12 0 6 -6 3 -14 -8 -13 -17 -15 -18 -21 -2 -9 22 2 39 20 31 8 -3
15 0 15 6 0 6 8 11 18 12 13 0 12 2 -5 9 -13 5 -23 16 -23 25 0 8 -5 15 -11
15 -5 0 -8 -4 -5 -9 8 -12 -3 -41 -15 -41 -5 0 -9 16 -9 36 0 19 -4 33 -9 29
-5 -3 -13 0 -17 6 -4 7 -3 9 3 6 6 -4 14 1 17 10 7 18 -12 35 -32 28 -7 -3
-17 7 -22 21 -13 32 -12 43 0 24 8 -12 10 -12 11 5 0 12 3 15 6 7 4 -10 9 -7
17 10 7 13 19 22 29 20 10 -2 17 4 17 13 0 10 -5 13 -12 9 -7 -4 -27 -7 -44
-6 -36 3 -70 -23 -55 -42 13 -15 17 -68 7 -85 -6 -9 -4 -18 6 -25 8 -6 13 -17
10 -25 -2 -7 2 -17 9 -22 8 -5 9 -9 3 -9 -7 0 -14 -10 -17 -21 -4 -15 -11 -20
-22 -15 -14 5 -45 -13 -45 -26 0 -8 40 -6 45 3 15 22 36 8 34 -23 0 -18 2 -45
5 -60 4 -16 2 -28 -4 -28 -8 0 -15 28 -12 52 1 3 -5 11 -13 18 -11 9 -18 9
-30 -4 -20 -20 -60 -30 -77 -20 -7 4 -10 4 -6 0 19 -22 123 -64 137 -57 22 12
75 4 111 -14 28 -15 30 -14 30 4 0 15 -5 18 -21 14 -16 -4 -20 -2 -17 8 3 8
12 13 22 11 14 -3 21 9 17 31 -2 12 17 8 22 -5 4 -10 6 -10 6 0 1 7 5 11 11 7
5 -3 28 15 51 40 40 44 88 75 116 75 7 0 13 5 13 10 0 6 -4 10 -10 10 -5 0
-10 7 -10 15 0 8 -5 15 -11 15 -15 0 -7 43 10 48 10 3 12 -1 9 -16 -4 -14 0
-22 12 -25 14 -3 17 0 13 12 -3 12 -2 11 7 -2 7 -11 10 -30 7 -43 -4 -21 -1
-24 17 -18 11 4 21 7 22 8 0 0 14 22 31 48 33 51 27 51 104 1 19 -13 37 -19
42 -14 9 9 -16 68 -27 64 -14 -6 -30 -2 -21 5 6 4 17 16 25 26 15 19 14 19
-17 2 -35 -18 -39 -15 -23 14 7 13 7 21 0 25 -5 3 -10 1 -10 -6 0 -8 -12 -10
-37 -6 -23 4 -33 3 -24 -2 9 -6 11 -18 7 -35 -5 -19 -13 -26 -32 -26 -14 0
-23 -4 -19 -10 3 -5 -1 -10 -11 -10 -16 0 -16 11 1 53 6 14 2 20 -13 24 -24 6
-38 33 -18 33 8 0 17 6 20 13 3 6 3 2 1 -10 -3 -12 -1 -24 5 -28 5 -3 10 -1
10 4 0 6 7 11 16 11 8 0 12 5 9 10 -4 6 -1 17 5 25 10 12 7 17 -14 26 -14 7
-26 16 -26 21 0 4 -6 8 -14 8 -7 0 -19 7 -26 16 -8 8 -21 19 -31 25 -15 7 -17
6 -13 -6 4 -8 1 -15 -4 -15 -6 0 -12 10 -14 22 -2 11 -11 22 -21 24 -15 2 -16
0 -6 -12 6 -8 9 -17 6 -21 -3 -3 -16 11 -28 31 -12 20 -29 41 -39 46 -10 5
-23 23 -28 39 -10 27 -8 31 21 46 18 8 39 19 47 24 8 5 36 19 62 32 26 13 46
25 44 26 -5 5 -221 -41 -224 -48 -2 -4 -12 -4 -23 -2 -24 7 -191 -26 -185 -36
2 -3 -8 -6 -22 -7 -65 -3 -151 -18 -146 -25 3 -5 -1 -6 -9 -3 -8 3 -51 -4 -95
-15 -44 -12 -89 -21 -99 -21 -10 0 -52 18 -93 39 -204 104 -316 163 -324 172
-13 12 -27 11 -136 -17z m1153 -170 c-4 -10 -9 -12 -15 -6 -12 12 -1 35 12 27
5 -3 6 -13 3 -21z m-1565 8 c-1 -4 -38 -79 -82 -166 l-79 -158 -36 7 c-20 3
-52 10 -72 16 -36 9 -36 10 -29 48 8 43 24 63 93 111 26 18 47 37 47 42 0 4 6
8 14 8 8 0 24 11 37 25 13 13 29 25 35 25 6 0 21 11 34 25 22 24 45 34 38 17z
m1092 -26 c0 -2 -7 -7 -16 -10 -8 -3 -12 -2 -9 4 6 10 25 14 25 6z m598 -117
c9 -9 25 -15 34 -14 11 2 15 -2 11 -11 -3 -8 0 -21 7 -29 10 -12 9 -15 -8 -15
-13 0 -22 9 -26 25 -4 14 -13 25 -20 25 -19 0 -46 27 -46 46 0 16 7 11 48 -27z
m-1679 -251 c1 -178 5 -170 -79 -149 -19 5 -47 12 -62 15 -37 8 -36 35 2 105
17 30 30 60 30 67 0 7 11 34 25 60 14 26 25 52 25 59 0 6 10 31 22 56 l22 44
7 -50 c4 -27 8 -121 8 -207z m1811 202 c0 -5 -2 -10 -4 -10 -3 0 -8 5 -11 10
-3 6 -1 10 4 10 6 0 11 -4 11 -10z m-175 -35 c1 -13 -5 -22 -12 -21 -15 2 -17
11 -9 41 6 24 21 11 21 -20z m45 -60 c0 -8 -4 -15 -10 -15 -5 0 -10 7 -10 15
0 8 5 15 10 15 6 0 10 -7 10 -15z m20 -125 c0 -5 -2 -10 -4 -10 -3 0 -8 5 -11
10 -3 6 -1 10 4 10 6 0 11 -4 11 -10z m-89 -13 c-1 -4 -1 -14 -1 -23 0 -8 -4
-12 -10 -9 -13 8 -13 48 1 43 6 -2 10 -7 10 -11z m-1064 -39 c-3 -8 -6 -5 -6
6 -1 11 2 17 5 13 3 -3 4 -12 1 -19z m2523 -538 c0 -5 -2 -10 -4 -10 -3 0 -8
5 -11 10 -3 6 -1 10 4 10 6 0 11 -4 11 -10z m-2152 -119 c16 -51 16 -51 -17
-51 -24 0 -31 6 -40 31 -17 49 -14 59 17 59 25 0 31 -6 40 -39z m1828 -107
c-4 -9 -9 -15 -11 -12 -3 3 -3 13 1 22 4 9 9 15 11 12 3 -3 3 -13 -1 -22z
m-136 -29 c0 -6 -7 -12 -15 -12 -8 0 -15 6 -15 12 0 6 7 12 15 12 8 0 15 -6
15 -12z m17 -7 c-3 -8 -6 -5 -6 6 -1 11 2 17 5 13 3 -3 4 -12 1 -19z m-107
-14 c0 -8 -5 -12 -10 -9 -6 4 -8 11 -5 16 9 14 15 11 15 -7z m-477 -79 c-3 -9
-8 -14 -10 -11 -3 3 -2 9 2 15 9 16 15 13 8 -4z m-1852 -362 c7 -10 9 -15 5
-11 -5 4 -16 2 -25 -5 -14 -10 -14 -10 -4 4 7 9 10 19 6 22 -3 4 -4 7 -1 7 3
0 12 -8 19 -17z m19 -66 c0 -7 -4 -6 -10 3 -8 12 -10 12 -10 1 0 -8 -3 -12 -6
-8 -9 9 6 28 17 22 5 -4 9 -12 9 -18z m39 -26 c-1 -13 -2 -13 -6 2 -2 9 -8 15
-12 13 -4 -3 -8 1 -8 9 0 11 4 12 14 4 7 -6 12 -19 12 -28z m56 1 c-3 -3 -11
0 -18 7 -9 10 -8 11 6 5 10 -3 15 -9 12 -12z m-86 -40 c9 -8 11 -11 4 -8 -21
11 -23 -11 -3 -35 11 -13 19 -19 20 -13 0 5 -6 16 -12 24 -11 12 -10 12 5 1
19 -15 21 -12 8 22 -7 18 -6 24 4 24 8 0 12 -4 9 -9 -3 -4 5 -8 16 -8 16 0 20
-4 16 -16 -4 -10 -2 -13 6 -8 7 5 9 2 5 -9 -3 -8 1 -21 9 -28 10 -8 11 -15 4
-24 -5 -6 -7 -15 -3 -19 10 -10 10 -126 1 -120 -5 3 -8 0 -8 -5 0 -6 6 -11 13
-11 8 0 9 -3 1 -8 -16 -10 -27 -63 -13 -60 6 2 13 -5 14 -14 4 -23 -7 -23 -21
0 -12 18 -11 72 1 107 6 17 5 18 -5 5 -10 -13 -11 -12 -5 5 12 34 11 60 -3 57
-7 -1 -12 3 -11 10 1 7 1 20 0 28 -1 13 -2 13 -12 0 -8 -12 -9 -10 -4 9 5 16
4 21 -4 17 -14 -9 -15 -46 -1 -46 6 0 10 -4 10 -8 0 -5 -7 -9 -16 -9 -11 0
-15 9 -14 31 3 56 -3 62 -10 11 l-8 -50 1 52 c0 29 -3 56 -7 60 -8 7 -3 -90 7
-159 3 -16 0 -26 -7 -25 -6 1 -10 -9 -8 -23 1 -17 -1 -21 -7 -12 -7 11 -9 11
-14 -2 -4 -9 -1 -15 5 -13 8 1 11 -13 9 -43 -4 -58 -11 -66 -11 -12 0 22 -4
43 -8 46 -5 3 -8 65 -7 138 2 73 -1 143 -6 156 -6 15 -5 21 1 17 6 -3 13 1 17
10 5 16 7 15 16 -1 6 -11 18 -25 26 -32z m-1 23 c-3 -3 -9 2 -12 12 -6 14 -5
15 5 6 7 -7 10 -15 7 -18z m61 11 c9 -11 9 -16 0 -22 -8 -4 -9 -3 -5 4 4 7 2
12 -3 12 -6 0 -11 5 -11 10 0 14 5 13 19 -4z m35 -42 c3 -8 2 -12 -4 -9 -6 3
-10 10 -10 16 0 14 7 11 14 -7z m-73 -153 c6 10 9 8 9 -9 0 -16 -4 -21 -12
-16 -10 6 -10 4 0 -7 14 -15 16 -33 3 -24 -6 3 -8 -9 -6 -27 3 -24 2 -29 -5
-18 -5 8 -10 10 -10 4 0 -6 8 -18 17 -25 14 -12 16 -12 8 0 -6 10 -4 12 4 6
10 -6 11 -3 2 13 -15 28 -14 32 7 26 11 -4 13 -3 5 3 -7 5 -9 14 -4 21 4 7 6
25 3 39 -4 24 -3 25 10 12 9 -8 13 -16 9 -19 -4 -3 -7 -27 -6 -55 0 -27 -2
-70 -6 -95 l-6 -45 -3 45 -3 45 -6 -45 c-5 -35 -3 -46 9 -51 19 -8 32 -1 24
13 -4 6 -2 8 4 4 5 -3 12 -1 14 6 3 8 7 6 11 -5 3 -9 3 -16 -1 -16 -21 4 -23
-3 -6 -23 12 -14 13 -18 3 -10 -9 6 -31 14 -48 16 -26 3 -31 1 -26 -12 3 -9 2
-13 -2 -8 -4 4 -8 15 -9 24 -1 10 -2 37 -4 62 l-3 45 -7 -45 c-6 -39 -7 -35
-6 27 0 39 4 67 7 61 9 -15 16 12 14 57 -1 22 0 34 3 26 4 -11 6 -11 13 0z
m29 -263 c0 -9 4 -8 10 2 11 17 11 16 14 -21 2 -15 -2 -26 -10 -26 -7 0 -10 7
-7 14 3 8 0 13 -7 11 -7 -2 -14 5 -15 15 -2 9 1 17 6 17 5 0 9 -6 9 -12z m-20
-33 c14 -19 14 -19 -2 -6 -10 7 -18 18 -18 24 0 6 1 8 3 6 1 -2 9 -13 17 -24z
m21 -42 c13 -17 13 -17 -5 -3 -18 14 -19 13 -13 -3 4 -11 3 -16 -3 -12 -12 8
-13 35 -1 35 5 0 15 -8 22 -17z m-60 -40 c13 -16 12 -17 -3 -4 -17 13 -22 21
-14 21 2 0 10 -8 17 -17z m84 7 c3 -5 1 -10 -4 -10 -6 0 -11 5 -11 10 0 6 2
10 4 10 3 0 8 -4 11 -10z m-44 -17 c13 -16 12 -17 -3 -4 -17 13 -22 21 -14 21
2 0 10 -8 17 -17z"/>
<path d="M2019 1478 c0 -2 -2 -65 -3 -140 -2 -133 -2 -137 15 -112 13 21 15
33 7 62 -5 19 -8 64 -5 99 2 35 0 66 -5 69 -4 3 -6 10 -3 15 4 5 4 9 1 9 -3 0
-6 -1 -7 -2z m8 -210 c-3 -7 -5 -2 -5 12 0 14 2 19 5 13 2 -7 2 -19 0 -25z"/>
<path d="M2095 1415 c2 -14 -1 -25 -6 -25 -5 0 -9 -4 -9 -10 0 -5 5 -9 11 -7
6 1 21 -16 32 -37 11 -22 22 -35 25 -28 2 6 -2 20 -7 31 -7 12 -7 22 -2 26 9
5 -28 74 -40 75 -3 0 -5 -11 -4 -25z m30 -35 c3 -5 2 -10 -4 -10 -5 0 -13 5
-16 10 -3 6 -2 10 4 10 5 0 13 -4 16 -10z"/>
<path d="M2057 1170 c6 -8 13 -33 16 -55 l4 -40 1 41 c1 29 -3 46 -15 55 -16
12 -17 12 -6 -1z"/>
<path d="M2508 3210 c-7 -43 -4 -59 8 -48 3 3 4 26 2 49 l-3 44 -7 -45z"/>
<path d="M3024 3198 c-12 -20 12 -29 29 -10 15 17 15 18 -3 19 -11 1 -22 -3
-26 -9z"/>
<path d="M2590 3190 c0 -5 5 -10 11 -10 5 0 7 5 4 10 -3 6 -8 10 -11 10 -2 0
-4 -4 -4 -10z"/>
<path d="M2705 3190 c-3 -5 -1 -11 5 -15 5 -3 10 -17 10 -31 0 -24 31 -64 50
-64 6 0 10 -5 10 -11 0 -5 -6 -7 -12 -3 -10 6 -10 4 0 -8 7 -9 28 -24 47 -33
20 -9 35 -23 35 -33 0 -9 3 -27 6 -39 5 -18 1 -22 -23 -26 -24 -3 -22 -4 10
-6 36 -1 54 -21 19 -21 -26 0 -34 -11 -20 -27 9 -11 9 -17 -3 -24 -20 -13 -34
-6 -37 19 -2 12 -10 22 -17 22 -11 0 -13 -8 -9 -29 4 -20 2 -31 -7 -34 -8 -2
-2 -2 14 0 50 8 119 5 130 -6 20 -20 24 -12 19 32 -2 23 -7 67 -9 98 -4 50 -7
56 -24 52 -11 -3 -19 0 -19 6 0 7 4 10 9 7 15 -10 35 25 33 57 -1 18 -10 37
-19 44 -13 10 -13 15 -4 27 19 22 -22 30 -58 12 -16 -9 -37 -13 -45 -10 -12 5
-15 2 -10 -9 3 -9 3 -21 -1 -27 -10 -16 -35 8 -35 34 0 24 -36 61 -45 46z
m121 -71 c8 -14 -11 -33 -25 -25 -11 7 -4 36 9 36 5 0 12 -5 16 -11z"/>
<path d="M3125 3179 c-6 -19 -2 -89 7 -89 29 0 35 12 24 50 -13 45 -24 58 -31
39z"/>
<path d="M2926 3173 c-12 -12 -6 -23 13 -23 10 0 23 6 29 13 8 10 5 13 -12 15
-13 1 -26 -1 -30 -5z"/>
<path d="M2600 3143 c0 -23 17 -49 26 -41 9 10 -4 58 -16 58 -6 0 -10 -8 -10
-17z"/>
<path d="M2677 3152 c-3 -4 4 -16 14 -26 19 -19 19 -19 19 1 0 20 -25 39 -33
25z"/>
<path d="M3030 3135 c0 -9 -6 -12 -17 -8 -15 5 -15 3 1 -9 12 -10 17 -21 13
-32 -5 -14 -2 -17 16 -14 14 2 22 9 21 21 -1 9 -2 26 -3 37 -1 23 -31 28 -31
5z"/>
<path d="M2934 3127 c-3 -8 -3 -27 0 -43 2 -16 5 -32 5 -36 2 -13 21 -9 37 7
9 8 11 15 5 15 -5 0 -11 14 -13 32 -3 33 -24 49 -34 25z"/>
<path d="M3375 3109 c-4 -6 -4 -13 -1 -16 8 -8 36 5 36 17 0 13 -27 13 -35 -1z"/>
<path d="M3140 3050 c0 -5 5 -10 10 -10 6 0 10 5 10 10 0 6 -4 10 -10 10 -5 0
-10 -4 -10 -10z"/>
<path d="M2412 3028 c3 -7 14 -14 26 -16 16 -3 20 1 16 12 -7 19 -48 22 -42 4z"/>
<path d="M3047 3034 c-8 -8 1 -24 14 -24 5 0 9 7 9 15 0 15 -12 20 -23 9z"/>
<path d="M3240 3004 c0 -8 6 -11 15 -8 8 4 15 9 15 13 0 4 -7 8 -15 8 -8 0
-15 -6 -15 -13z"/>
<path d="M2950 2995 c0 -8 5 -15 10 -15 6 0 10 7 10 15 0 8 -4 15 -10 15 -5 0
-10 -7 -10 -15z"/>
<path d="M2798 2988 c5 -5 16 -8 23 -6 8 3 3 7 -10 11 -17 4 -21 3 -13 -5z"/>
<path d="M2621 2943 c0 -28 2 -54 7 -57 4 -2 6 14 4 37 -5 68 -10 76 -11 20z"/>
<path d="M3307 2984 c-3 -4 -2 -14 3 -24 5 -10 6 -21 2 -25 -4 -5 -2 -5 4 -2
6 4 9 18 6 32 -5 27 -6 28 -15 19z"/>
<path d="M3155 2941 c-6 -11 9 -23 19 -14 9 9 7 23 -3 23 -6 0 -12 -4 -16 -9z"/>
<path d="M3068 2913 c7 -3 16 -2 19 1 4 3 -2 6 -13 5 -11 0 -14 -3 -6 -6z"/>
<path d="M2971 2880 c0 -33 1 -34 10 -11 6 16 6 28 -1 35 -7 7 -10 -1 -9 -24z"/>
<path d="M2632 2840 c0 -19 2 -27 5 -17 2 9 2 25 0 35 -3 9 -5 1 -5 -18z"/>
<path d="M2653 2773 c-2 -123 -1 -115 -13 -108 -16 10 -12 -15 5 -32 9 -8 22
-13 30 -10 7 3 15 1 17 -5 2 -6 2 35 0 91 -4 97 -3 101 16 101 12 0 23 4 26 8
2 4 -8 8 -22 7 -21 0 -28 5 -30 23 -2 12 -9 22 -15 22 -8 0 -13 -30 -14 -97z"/>
<path d="M2460 2803 c0 -24 5 -43 10 -43 13 0 13 50 0 70 -7 11 -10 4 -10 -27z"/>
<path d="M2977 2827 c-9 -23 10 -40 40 -38 60 4 78 8 75 17 -2 5 -15 7 -30 5
-60 -9 -77 -7 -74 12 3 20 -4 23 -11 4z"/>
<path d="M3118 2813 c7 -3 16 -2 19 1 4 3 -2 6 -13 5 -11 0 -14 -3 -6 -6z"/>
<path d="M2522 2779 c4 -42 24 -49 23 -7 0 17 -7 34 -14 36 -9 3 -11 -5 -9
-29z"/>
<path d="M2591 2748 c-1 -27 4 -48 9 -48 12 0 12 47 0 75 -6 15 -9 8 -9 -27z"/>
<path d="M2460 2730 c0 -5 5 -10 10 -10 6 0 10 5 10 10 0 6 -4 10 -10 10 -5 0
-10 -4 -10 -10z"/>
<path d="M4965 2688 c-27 -5 -60 -12 -73 -14 -27 -5 -21 -19 17 -38 23 -12 40
-13 100 -3 64 9 71 12 55 24 -10 7 -14 13 -10 13 4 0 1 7 -8 15 -8 8 -18 14
-23 14 -4 -1 -30 -6 -58 -11z"/>
<path d="M2401 2624 c-1 -58 10 -84 35 -84 22 0 19 87 -3 93 -17 4 -17 5 0 6
23 1 22 18 -2 31 -28 15 -28 15 -30 -46z"/>
<path d="M2590 2670 c0 -5 5 -10 10 -10 6 0 10 5 10 10 0 6 -4 10 -10 10 -5 0
-10 -4 -10 -10z"/>
<path d="M3207 2673 c-4 -3 -7 -11 -7 -17 0 -6 5 -5 12 2 6 6 9 14 7 17 -3 3
-9 2 -12 -2z"/>
<path d="M4723 2647 l-53 -11 0 -42 c0 -23 -3 -55 -6 -72 l-6 -31 43 12 c37
11 45 17 47 40 3 22 10 29 33 34 30 6 34 18 23 61 -4 12 -11 21 -18 20 -6 0
-35 -6 -63 -11z"/>
<path d="M5160 2604 c0 -8 5 -12 10 -9 6 3 10 10 10 16 0 5 -4 9 -10 9 -5 0
-10 -7 -10 -16z"/>
<path d="M2525 2600 c3 -5 8 -10 11 -10 2 0 4 5 4 10 0 6 -5 10 -11 10 -5 0
-7 -4 -4 -10z"/>
<path d="M2460 2565 c0 -19 4 -35 8 -35 5 0 9 16 10 35 1 19 -3 35 -8 35 -6 0
-10 -16 -10 -35z"/>
<path d="M3093 2506 l2 -74 -25 9 c-14 5 -34 13 -45 18 -68 30 -87 34 -95 21
-6 -9 -10 -7 -15 9 -8 26 -25 28 -18 1 4 -14 -1 -21 -21 -26 -15 -3 -24 -9
-21 -12 9 -9 65 -9 71 0 9 14 24 9 24 -8 0 -10 -6 -14 -15 -10 -9 3 -19 -3
-25 -14 -6 -11 -17 -17 -24 -14 -11 4 -13 0 -9 -17 4 -15 3 -20 -5 -15 -8 5
-12 0 -12 -13 0 -17 6 -21 30 -21 23 0 30 -4 30 -20 0 -15 7 -20 26 -20 28 0
109 17 139 30 11 5 27 11 35 13 9 4 6 6 -7 6 -28 1 -32 36 -5 43 17 5 19 17
21 95 1 81 0 89 -18 90 -18 2 -19 -5 -18 -71z m-30 -164 c-12 -8 -20 -9 -27
-1 -8 7 -5 15 8 25 16 11 22 11 28 1 4 -7 1 -17 -9 -25z m-99 2 c13 -5 14 -9
5 -20 -16 -20 -29 -17 -29 6 0 22 1 23 24 14z"/>
<path d="M2520 2533 c0 -43 6 -41 13 5 3 17 1 32 -4 32 -5 0 -9 -16 -9 -37z"/>
<path d="M2622 2548 c0 -13 -2 -38 -4 -57 -3 -25 1 -40 15 -54 18 -18 19 -18
34 0 8 10 12 13 9 8 -2 -6 -1 -17 5 -25 6 -10 9 1 8 35 0 37 -3 45 -9 30 -7
-16 -9 -17 -9 -3 -1 9 -8 24 -17 32 -14 15 -14 16 0 16 22 0 20 17 -3 30 -27
14 -29 13 -29 -12z"/>
<path d="M4862 2545 c0 -16 2 -22 5 -12 2 9 2 23 0 30 -3 6 -5 -1 -5 -18z"/>
<path d="M2580 2506 c0 -20 4 -35 8 -32 9 5 8 53 -1 63 -4 3 -7 -10 -7 -31z"/>
<path d="M2403 2517 c4 -10 7 -22 7 -26 0 -4 9 -7 20 -7 25 0 21 14 -10 35
-23 15 -24 15 -17 -2z"/>
<path d="M2741 2503 c-1 -15 8 -24 29 -32 27 -9 30 -8 30 10 0 13 -7 19 -24
19 -13 0 -27 6 -29 13 -3 6 -6 2 -6 -10z"/>
<path d="M2730 2434 c0 -37 10 -53 48 -73 21 -11 22 -10 22 33 0 40 -3 47 -30
61 -39 20 -40 20 -40 -21z"/>
<path d="M2826 2455 c4 -8 8 -15 10 -15 2 0 4 7 4 15 0 8 -4 15 -10 15 -5 0
-7 -7 -4 -15z"/>
<path d="M4840 2424 c0 -8 5 -12 10 -9 6 4 8 11 5 16 -9 14 -15 11 -15 -7z"/>
<path d="M2400 2421 c0 -13 28 -33 33 -23 3 4 -3 13 -14 20 -10 7 -19 8 -19 3z"/>
<path d="M2820 2386 c0 -20 4 -36 8 -36 12 0 13 58 1 65 -5 4 -9 -10 -9 -29z"/>
<path d="M2630 2389 c17 -14 26 -17 28 -9 5 14 -16 30 -38 30 -10 -1 -7 -7 10
-21z"/>
<path d="M2675 2370 c3 -5 8 -10 11 -10 2 0 4 5 4 10 0 6 -5 10 -11 10 -5 0
-7 -4 -4 -10z"/>
<path d="M2411 2341 c-17 -11 -7 -41 14 -41 8 0 15 5 15 10 0 6 -5 10 -11 10
-6 0 -9 7 -5 15 6 17 6 18 -13 6z"/>
<path d="M2754 2325 c30 -28 46 -32 46 -12 0 8 -11 19 -25 25 -42 19 -50 14
-21 -13z"/>
<path d="M3209 2313 c-13 -16 -12 -17 4 -4 9 7 17 15 17 17 0 8 -8 3 -21 -13z"/>
<path d="M2621 2315 c-1 -13 19 -35 31 -35 4 0 8 5 8 10 0 6 -6 10 -14 10 -8
0 -17 6 -19 13 -3 6 -6 7 -6 2z"/>
<path d="M3270 2290 c0 -3 6 -12 13 -19 8 -9 8 -12 0 -7 -6 3 -13 1 -15 -5 -2
-7 -31 -16 -63 -21 -33 -5 -67 -11 -75 -12 -72 -14 -90 -20 -90 -30 0 -10 116
-76 134 -76 3 0 15 -9 26 -20 11 -11 27 -20 36 -20 9 0 29 -9 46 -21 35 -26
53 -15 18 11 l-24 18 17 88 c22 114 22 123 -3 121 -11 -1 -20 -4 -20 -7z"/>
<path d="M2378 2267 c-2 -15 6 -27 25 -39 37 -24 45 -23 41 8 -3 31 -13 43
-42 49 -15 3 -22 -2 -24 -18z"/>
<path d="M3240 2279 c0 -5 5 -7 10 -4 6 3 10 8 10 11 0 2 -4 4 -10 4 -5 0 -10
-5 -10 -11z"/>
<path d="M4476 2257 c3 -10 9 -15 12 -12 3 3 0 11 -7 18 -10 9 -11 8 -5 -6z"/>
<path d="M4504 2258 c-4 -5 -3 -12 0 -15 3 -4 6 -1 6 6 0 7 4 10 9 6 5 -3 12
-2 15 3 3 5 -2 9 -10 9 -8 0 -17 -4 -20 -9z"/>
<path d="M4383 2226 c-4 -7 -15 -16 -23 -19 -8 -3 -4 -5 10 -4 18 1 26 7 26
19 0 22 -2 22 -13 4z"/>
<path d="M4304 2188 c-19 -23 -19 -23 2 -5 11 9 24 14 29 10 4 -5 5 -2 1 5 -9
16 -10 16 -32 -10z"/>
<path d="M4641 2150 c-1 -35 14 -58 23 -34 3 9 4 19 1 22 -3 3 -6 -1 -6 -9 -1
-8 -5 0 -9 16 -7 28 -8 28 -9 5z"/>
<path d="M4660 2166 c0 -2 8 -10 18 -17 15 -13 16 -12 3 4 -13 16 -21 21 -21
13z"/>
<path d="M4095 2150 c-4 -6 -11 -8 -16 -5 -5 4 -9 2 -9 -4 0 -5 8 -9 18 -8 10
0 19 7 19 14 0 16 -4 16 -12 3z"/>
<path d="M3986 2125 c-3 -8 -1 -15 4 -15 6 0 10 7 10 15 0 8 -2 15 -4 15 -2 0
-6 -7 -10 -15z"/>
<path d="M5515 2130 c-80 -12 -167 -38 -176 -52 -11 -17 -11 -26 0 -32 5 -3 8
2 7 12 0 9 5 16 12 15 6 -2 12 2 12 9 0 9 3 9 12 0 10 -10 17 -36 20 -79 1 -7
5 -10 11 -6 5 3 7 14 4 24 -8 31 3 22 15 -12 8 -23 13 -27 19 -17 7 10 9 10
10 -2 0 -8 9 3 19 25 10 22 19 35 19 30 1 -6 12 -11 26 -11 14 0 24 5 22 11
-2 5 -13 9 -23 8 -10 -1 -14 0 -7 3 7 3 9 13 6 21 -4 10 3 7 18 -8 19 -19 25
-38 30 -94 5 -61 6 -56 7 48 1 64 -1 116 -5 116 -5 -1 -30 -5 -58 -9z m-44
-77 c13 -16 12 -17 -3 -4 -17 13 -26 2 -11 -13 13 -12 11 -33 -3 -33 -14 0
-20 48 -7 60 9 9 9 9 24 -10z"/>
<path d="M4040 2120 c0 -5 5 -10 11 -10 5 0 7 5 4 10 -3 6 -8 10 -11 10 -2 0
-4 -4 -4 -10z"/>
<path d="M5218 2073 c7 -3 16 -2 19 1 4 3 -2 6 -13 5 -11 0 -14 -3 -6 -6z"/>
<path d="M5284 1995 c0 -49 1 -71 3 -48 2 23 2 64 0 90 -2 26 -3 8 -3 -42z"/>
<path d="M5301 2064 c0 -11 3 -14 6 -6 3 7 2 16 -1 19 -3 4 -6 -2 -5 -13z"/>
<path d="M4533 2057 c0 -8 6 -14 14 -14 9 0 10 4 2 14 -6 7 -12 13 -14 13 -1
0 -2 -6 -2 -13z"/>
<path d="M5078 2053 c7 -3 16 -2 19 1 4 3 -2 6 -13 5 -11 0 -14 -3 -6 -6z"/>
<path d="M3630 2029 c0 -5 5 -7 10 -4 6 3 10 8 10 11 0 2 -4 4 -10 4 -5 0 -10
-5 -10 -11z"/>
<path d="M5491 2018 c0 -9 -4 -25 -7 -35 -5 -17 -5 -17 6 0 6 10 9 25 7 35 -4
15 -5 15 -6 0z"/>
<path d="M5511 2014 c0 -11 3 -14 6 -6 3 7 2 16 -1 19 -3 4 -6 -2 -5 -13z"/>
<path d="M5531 2014 c0 -11 3 -14 6 -6 3 7 2 16 -1 19 -3 4 -6 -2 -5 -13z"/>
<path d="M5551 2014 c0 -11 3 -14 6 -6 3 7 2 16 -1 19 -3 4 -6 -2 -5 -13z"/>
<path d="M4947 2013 c-34 -5 -50 -32 -33 -55 7 -10 16 -15 20 -11 4 4 4 -1 0
-11 -5 -14 -4 -17 4 -12 7 4 12 19 12 34 0 19 -3 23 -9 14 -6 -11 -10 -10 -15
4 -3 9 -4 19 -1 22 3 3 5 -1 5 -9 0 -11 2 -11 10 1 8 13 10 13 10 1 0 -11 4
-9 15 5 13 17 13 16 2 -14 -9 -25 -9 -37 1 -52 10 -16 10 -20 0 -18 -8 2 -12
-5 -10 -17 2 -17 1 -18 -8 -5 -9 12 -10 10 -5 -10 5 -19 4 -22 -4 -10 -7 10
-11 11 -11 3 0 -14 -26 -18 -33 -5 -2 4 -2 0 0 -8 2 -10 -3 -8 -13 5 -8 11
-19 19 -24 18 -5 -2 -6 5 -3 15 6 14 4 15 -8 5 -12 -10 -18 -10 -27 -1 -15 15
-13 29 -16 -147 -2 -96 1 -155 8 -164 8 -11 8 -13 -1 -7 -8 4 -13 1 -13 -9 0
-10 5 -14 13 -9 10 6 10 4 0 -7 -9 -9 -13 -52 -13 -141 0 -97 -3 -127 -12
-126 -8 2 -12 -6 -10 -21 2 -24 -13 -51 -29 -51 -5 0 -9 5 -9 11 0 5 4 7 10 4
6 -4 7 1 3 12 -10 27 -33 59 -33 45 0 -6 -4 -12 -10 -12 -5 0 -10 12 -10 27 0
14 -2 24 -4 22 -2 -2 -7 -66 -11 -141 -5 -108 -4 -138 6 -138 7 0 34 -14 60
-31 l48 -31 96 22 95 23 0 493 c0 272 -4 493 -8 493 -4 -1 -19 -4 -35 -6z m30
-75 c-3 -7 -5 -2 -5 12 0 14 2 19 5 13 2 -7 2 -19 0 -25z m0 -77 c-1 -33 -3
-37 -13 -23 -10 14 -11 12 -9 -12 2 -16 8 -32 13 -35 5 -3 3 -19 -4 -36 -10
-24 -13 -26 -14 -10 l-1 20 -9 -20 -9 -20 -1 20 c-1 13 -3 15 -7 6 -5 -11 -7
-11 -14 0 -6 10 -9 5 -9 -16 0 -22 -3 -26 -9 -16 -15 24 -41 22 -37 -2 2 -12
1 -16 -1 -9 -7 20 -22 14 -18 -8 2 -11 -1 -23 -7 -26 -7 -5 -9 0 -6 13 3 11 1
27 -4 36 -7 13 -5 15 9 10 15 -5 16 -4 7 8 -16 21 -24 58 -13 65 5 3 6 10 3
16 -4 7 -2 8 5 4 6 -4 9 -11 6 -16 -3 -5 -1 -11 3 -14 8 -5 9 12 3 47 0 5 -5
6 -9 3 -5 -3 -9 1 -9 8 0 15 23 17 25 2 8 -45 6 -71 -5 -68 -7 1 -13 -2 -13
-8 0 -5 6 -10 13 -10 9 0 8 -3 -2 -9 -9 -6 -10 -11 -2 -15 6 -4 15 3 20 16 7
16 10 18 10 6 1 -9 6 -20 12 -24 7 -4 9 0 5 14 -13 39 -15 62 -6 62 4 0 10 -5
12 -12 5 -13 38 -20 38 -8 0 10 -19 24 -39 27 -30 4 -32 21 -2 18 17 -1 34 1
37 6 3 5 10 7 15 4 5 -4 14 5 21 19 6 14 12 26 14 26 1 0 1 -18 1 -39z m-48
-179 c1 -10 -4 -10 -19 -2 -19 10 -24 6 -21 -13 1 -5 -3 -6 -9 -2 -5 3 -10 0
-11 -7 0 -10 -2 -10 -6 0 -2 6 -10 9 -16 5 -7 -3 -8 -2 -4 3 5 5 14 9 20 9 7
1 11 6 10 12 -2 7 7 10 21 7 21 -3 23 -1 20 18 -4 21 -4 22 5 3 5 -11 10 -26
10 -33z m47 17 c0 -10 -3 -17 -6 -17 -19 2 -23 -4 -10 -13 12 -8 12 -12 2 -16
-10 -4 -9 -10 5 -27 10 -11 14 -18 9 -14 -5 4 -15 0 -23 -10 -12 -16 -13 -16
-6 2 5 15 3 17 -8 11 -11 -7 -12 -6 -3 6 6 8 10 24 9 37 -1 13 2 25 7 28 4 3
8 10 8 15 0 6 -4 8 -9 4 -5 -3 -12 -2 -15 3 -2 4 5 8 18 8 14 0 22 -6 22 -17z
m-56 -44 c7 -9 8 -15 2 -15 -5 0 -12 7 -16 15 -3 8 -4 15 -2 15 2 0 9 -7 16
-15z m-46 -23 c11 -2 15 1 11 7 -11 19 1 12 21 -11 15 -19 16 -20 2 -9 -14 10
-18 11 -18 1 0 -10 -3 -10 -14 -1 -11 10 -16 8 -24 -5 -8 -14 -9 -12 -9 11 0
15 2 23 6 19 3 -5 14 -10 25 -12z m-49 -1 c3 -5 2 -12 -3 -15 -5 -3 -9 1 -9 9
0 17 3 19 12 6z m109 -47 c3 -8 2 -12 -4 -9 -6 3 -10 10 -10 16 0 14 7 11 14
-7z m33 -1 c-4 -3 -2 -12 4 -20 7 -8 8 -13 1 -13 -12 0 -23 26 -15 34 4 3 9 6
11 6 3 0 2 -3 -1 -7z m-110 -9 c-3 -3 -12 -4 -19 -1 -8 3 -5 6 6 6 11 1 17 -2
13 -5z m60 -41 c-4 -3 0 -15 10 -25 20 -22 11 -24 -11 -2 -15 14 -14 34 1 34
4 0 3 -3 0 -7z m-121 -300 c-7 -64 -13 -64 -12 1 0 30 4 52 8 50 5 -3 6 -26 4
-51z m-68 -5 c-10 -21 -14 -23 -15 -5 0 6 -4 21 -8 32 -5 16 -5 17 4 5 9 -13
11 -12 12 5 l0 20 8 -20 c5 -11 4 -28 -1 -37z"/>
<path d="M4926 1841 c-3 -5 1 -11 9 -15 8 -3 15 -1 15 4 0 13 -18 22 -24 11z"/>
<path d="M4935 1791 c-4 -13 -4 -25 -1 -28 3 -4 6 2 7 13 0 18 1 18 9 -1 6
-13 9 -15 9 -5 0 8 -3 21 -8 29 -7 11 -10 9 -16 -8z"/>
<path d="M4887 1779 c4 -13 8 -18 11 -10 2 7 -1 18 -6 23 -8 8 -9 4 -5 -13z"/>
<path d="M4911 1774 c0 -11 3 -14 6 -6 3 7 2 16 -1 19 -3 4 -6 -2 -5 -13z"/>
<path d="M4833 1989 c-38 -11 -45 -24 -10 -17 13 3 24 0 25 -6 3 -37 30 -91
39 -82 4 3 11 1 18 -4 8 -7 19 0 35 23 13 17 17 26 8 19 -12 -10 -17 -10 -25
0 -11 15 -26 48 -27 63 -1 14 -25 15 -63 4z m50 -47 c-4 -9 -2 -13 4 -9 6 4
18 -1 26 -11 15 -17 15 -18 -8 -18 -13 0 -22 2 -20 5 3 2 0 10 -6 17 -6 7 -12
25 -14 41 -2 25 -1 25 10 9 8 -10 11 -25 8 -34z"/>
<path d="M4211 1974 c0 -11 3 -14 6 -6 3 7 2 16 -1 19 -3 4 -6 -2 -5 -13z"/>
<path d="M4568 1953 c7 -3 16 -2 19 1 4 3 -2 6 -13 5 -11 0 -14 -3 -6 -6z"/>
<path d="M4803 1933 c0 -12 3 -20 8 -18 4 3 10 1 14 -5 9 -15 24 -3 20 18 -2
9 -4 20 -4 24 -1 4 -9 6 -20 5 -12 -1 -18 -9 -18 -24z"/>
<path d="M4021 1934 c0 -11 3 -14 6 -6 3 7 2 16 -1 19 -3 4 -6 -2 -5 -13z"/>
<path d="M4358 1903 c6 -2 18 -2 25 0 6 3 1 5 -13 5 -14 0 -19 -2 -12 -5z"/>
<path d="M3727 1889 c7 -7 15 -10 18 -7 3 3 -2 9 -12 12 -14 6 -15 5 -6 -5z"/>
<path d="M5282 1860 c0 -14 2 -19 5 -12 2 6 2 18 0 25 -3 6 -5 1 -5 -13z"/>
<path d="M4048 1843 c6 -2 18 -2 25 0 6 3 1 5 -13 5 -14 0 -19 -2 -12 -5z"/>
<path d="M3860 1810 c-20 -6 -21 -8 -5 -8 11 0 31 4 45 8 20 6 21 8 5 8 -11 0
-31 -4 -45 -8z"/>
<path d="M3655 1759 c-38 -10 -104 -24 -145 -30 -41 -6 -119 -21 -172 -35 -53
-13 -107 -24 -120 -24 -13 0 -72 -11 -133 -24 -125 -27 -283 -58 -305 -60 -8
0 -18 -4 -21 -9 -3 -4 -39 -11 -80 -16 -107 -14 -111 -16 -103 -59 4 -20 20
-50 37 -67 16 -16 27 -25 23 -19 -8 15 14 32 36 29 10 -2 21 1 24 7 3 5 15 2
27 -9 15 -12 18 -13 9 -2 -9 12 -9 20 2 34 8 11 12 25 9 32 -4 9 7 13 40 13
24 0 65 3 91 6 l46 7 0 -37 c0 -45 28 -322 36 -356 5 -24 6 -24 16 -5 6 11 15
22 19 25 19 13 109 146 109 162 0 19 34 45 100 77 25 12 66 32 91 45 25 14 70
27 100 31 30 3 78 10 108 15 79 14 139 12 148 -4 7 -12 18 -11 75 3 55 13 66
19 58 31 -5 8 -10 70 -10 138 0 141 8 135 -115 101z m-1005 -253 c0 -2 -7 -7
-16 -10 -8 -3 -12 -2 -9 4 6 10 25 14 25 6z m-18 -28 c9 9 15 7 25 -6 14 -16
14 -16 9 3 -6 19 -5 19 7 3 8 -10 18 -14 22 -10 5 4 5 2 2 -5 -7 -12 -24 -12
-43 0 -7 4 -14 -2 -18 -15 -6 -26 -16 -18 -34 27 -11 28 -11 28 3 11 11 -15
18 -17 27 -8z"/>
<path d="M5573 1695 c0 -22 2 -30 4 -17 2 12 2 30 0 40 -3 9 -5 -1 -4 -23z"/>
<path d="M5572 1620 c0 -14 2 -19 5 -12 2 6 2 18 0 25 -3 6 -5 1 -5 -13z"/>
<path d="M2330 1590 c19 -16 38 -29 43 -30 4 0 7 -173 7 -384 l0 -384 36 -21
c19 -12 36 -21 38 -21 3 0 0 767 -2 787 -1 6 -17 16 -35 22 -19 7 -49 23 -67
36 -47 35 -62 31 -20 -5z"/>
<path d="M5571 1554 c0 -11 3 -14 6 -6 3 7 2 16 -1 19 -3 4 -6 -2 -5 -13z"/>
<path d="M2700 1415 c0 -5 5 -17 10 -25 5 -8 10 -10 10 -5 0 6 -5 17 -10 25
-5 8 -10 11 -10 5z"/>
<path d="M3829 1416 c-3 -3 -25 -8 -49 -11 -93 -13 -85 -6 -82 -69 l4 -56 -39
-1 c-61 -1 -156 -9 -183 -16 -33 -8 -51 -5 -72 14 -13 12 -15 20 -8 29 8 9 3
16 -18 26 -27 14 -30 13 -50 -9 -23 -26 -31 -46 -10 -25 7 7 16 12 22 12 5 0
-1 -9 -13 -19 -12 -11 -26 -32 -32 -48 -8 -25 -8 -24 -3 10 5 36 -8 52 -20 22
-3 -8 -12 -15 -19 -15 -24 0 -234 -216 -222 -228 3 -3 29 0 57 6 231 47 251
52 268 72 17 19 67 40 97 40 10 0 13 -26 13 -100 0 -93 1 -100 23 -111 12 -6
34 -22 48 -36 l26 -24 99 18 99 18 3 178 2 177 38 37 c40 40 72 85 72 103 0
10 -42 15 -51 6z"/>
<path d="M5571 1404 c0 -11 3 -14 6 -6 3 7 2 16 -1 19 -3 4 -6 -2 -5 -13z"/>
<path d="M5574 1285 c0 -49 1 -71 3 -48 2 23 2 64 0 90 -2 26 -3 8 -3 -42z"/>
<path d="M3400 1296 c0 -2 7 -9 15 -16 13 -11 14 -10 9 4 -5 14 -24 23 -24 12z"/>
<path d="M5499 1288 c-5 -15 -4 -50 1 -53 3 -2 6 9 6 26 0 24 -3 37 -7 27z"/>
<path d="M5449 1265 c-1 -3 -2 -9 -3 -14 0 -5 -4 -13 -8 -17 -4 -4 -3 -13 3
-21 9 -9 8 -13 0 -13 -6 0 -11 -8 -11 -17 0 -15 2 -16 10 -3 7 12 9 11 9 -5 1
-40 4 -54 12 -49 5 2 6 12 3 22 -5 15 -4 15 8 2 23 -26 35 -21 31 13 -2 29 -2
30 6 7 l8 -25 5 25 c5 24 5 23 8 -5 l2 -30 9 30 8 30 -3 -32 c-1 -17 0 -32 3
-31 19 2 21 -4 6 -18 -13 -14 -19 -14 -28 -4 -9 10 -9 11 1 6 6 -4 12 -3 12 2
0 19 -14 21 -32 5 -10 -9 -18 -13 -18 -8 0 4 -7 2 -15 -5 -8 -7 -15 -9 -15 -4
0 5 -5 2 -10 -6 -8 -12 -10 -12 -10 -1 0 11 -3 11 -17 0 -16 -12 -17 -12 -6 2
10 12 10 19 0 33 -11 15 -13 7 -15 -56 -3 -100 -12 -179 -22 -198 -5 -9 -4
-24 1 -35 10 -19 10 -19 -5 -2 -8 11 -12 26 -9 35 4 9 2 13 -4 9 -7 -5 -9 1
-6 15 4 19 3 20 -6 8 -8 -11 -9 -7 -4 19 4 25 3 32 -6 27 -6 -4 -9 -11 -7 -15
3 -4 1 -13 -5 -21 -6 -11 -9 -12 -9 -2 0 7 -4 11 -9 7 -11 -6 -7 28 5 48 6 9
5 9 -7 0 -12 -10 -15 -3 -17 45 -5 118 -12 58 -12 -106 l0 -171 54 -25 c50
-24 58 -25 117 -15 35 5 79 12 97 15 l32 5 0 229 c0 174 -3 229 -12 233 -7 2
-13 14 -13 27 0 14 -7 24 -16 25 -11 2 -16 -4 -15 -19 1 -24 -34 -30 -42 -7
-3 9 0 11 9 6 8 -5 10 -4 6 0 -4 5 -14 10 -22 11 -11 2 -12 -2 -6 -15 6 -10 6
-23 0 -32 -7 -11 -9 -9 -9 8 0 12 -5 25 -10 28 -6 4 -7 12 -3 18 9 14 13 37 7
37 -2 0 -5 -2 -5 -5z m97 -50 c-1 -8 -5 -17 -8 -21 -5 -4 -4 16 1 34 3 9 9 -1
7 -13z m-56 -46 c0 -11 -4 -18 -10 -14 -5 3 -7 12 -3 20 7 21 13 19 13 -6z
m77 -21 c-3 -8 -6 -5 -6 6 -1 11 2 17 5 13 3 -3 4 -12 1 -19z m-48 -51 c-2 -2
-11 -8 -20 -15 -12 -9 -16 -9 -16 1 0 7 9 14 20 14 11 1 18 1 16 0z m32 -24
c13 -16 12 -17 -3 -4 -10 7 -18 15 -18 17 0 8 8 3 21 -13z m-20 -10 c13 -16
12 -17 -3 -4 -10 7 -18 15 -18 17 0 8 8 3 21 -13z m-7 -63 c10 -13 9 -13 -6
-1 -10 7 -18 21 -17 30 0 13 1 14 6 1 3 -8 11 -22 17 -30z m-77 15 c0 -8 -4
-12 -9 -9 -5 3 -6 10 -3 15 9 13 12 11 12 -6z"/>
<path d="M3932 1212 c-50 -46 -52 -48 -43 -84 5 -20 6 -40 2 -43 -3 -4 5 -15
19 -27 14 -11 19 -16 11 -12 -11 5 -13 2 -8 -17 4 -13 7 -28 7 -32 0 -5 4 -5
10 -2 5 3 8 0 5 -7 -3 -7 0 -36 5 -63 6 -28 14 -62 17 -77 3 -15 11 -32 18
-38 18 -15 90 2 89 21 -1 8 -4 32 -8 54 -6 39 -6 39 8 -6 7 -26 17 -52 21 -58
3 -7 2 -18 -5 -26 -6 -7 -7 -16 -2 -19 5 -3 9 -22 10 -44 2 -36 0 -38 -37 -48
-32 -9 -38 -8 -34 3 7 19 -4 17 -74 -14 -42 -18 -63 -33 -63 -44 0 -15 4 -15
43 4 36 18 59 21 158 20 117 -1 117 -1 145 28 15 16 32 29 36 29 5 0 18 9 30
20 13 12 26 16 32 11 6 -5 39 -11 74 -15 58 -7 65 -5 93 18 17 15 35 26 40 26
6 0 7 5 4 10 -4 6 -10 8 -15 5 -11 -7 -20 47 -10 60 4 6 10 19 14 30 3 11 4 2
2 -21 -2 -22 2 -48 9 -58 13 -17 15 -17 39 0 15 9 29 15 32 12 2 -3 -15 -18
-38 -33 -24 -15 -53 -37 -65 -48 -19 -16 -33 -19 -85 -17 -106 5 -115 4 -145
-23 -15 -14 -44 -40 -63 -56 l-35 -30 30 -1 c64 0 316 -33 308 -41 -6 -6 -218
13 -378 33 -19 3 -20 -2 -18 -76 1 -43 4 -80 5 -81 11 -11 390 -59 513 -65 83
-5 182 -11 222 -15 63 -7 71 -10 68 -26 -3 -13 0 -17 8 -13 27 15 36 27 31 36
-3 5 -12 1 -21 -9 -13 -17 -13 -16 -3 5 12 24 36 30 43 10 3 -10 8 -10 18 1 9
9 9 11 2 7 -16 -9 -17 6 -1 22 16 16 28 15 24 0 -1 -7 -1 -10 1 -5 3 4 8 5 12
3 4 -3 13 0 21 6 12 8 12 9 -3 4 -11 -3 -16 -2 -12 4 3 6 15 10 27 10 15 0 18
4 14 16 -5 13 -3 14 6 6 10 -8 12 2 10 48 l-4 58 -61 26 c-34 14 -66 26 -71
26 -4 0 -6 -14 -4 -30 3 -17 1 -30 -3 -30 -4 0 -9 -10 -11 -22 -2 -12 -9 -24
-17 -26 -10 -3 -12 1 -9 16 5 18 2 20 -31 16 l-36 -4 41 15 c26 10 44 24 47
36 5 18 2 20 -16 14 -12 -4 -32 -9 -45 -12 -15 -4 -25 -15 -29 -35 -6 -32 -30
-33 -25 -1 3 19 -1 20 -37 13 -22 -4 -38 -4 -35 1 2 5 21 11 40 15 25 5 38 14
45 31 12 33 12 34 -17 23 -14 -6 -36 -10 -48 -10 -17 0 -25 -8 -32 -32 -13
-43 -39 -52 -31 -10 l6 31 -45 -16 c-32 -11 -49 -12 -56 -5 -11 11 47 32 88
32 18 0 23 7 26 37 4 29 -1 41 -24 65 -15 16 -29 32 -29 36 -7 40 -5 51 7 41
7 -5 11 -19 9 -30 -2 -11 0 -17 6 -13 15 9 0 67 -23 87 -14 12 -21 30 -22 61
0 24 -5 41 -10 38 -5 -3 -7 5 -4 16 4 12 2 22 -3 22 -5 0 -9 6 -10 13 0 6 -26
24 -57 38 -31 15 -91 42 -132 61 -41 19 -101 46 -133 61 -31 15 -64 27 -72 27
-8 0 -43 14 -77 30 -34 17 -71 30 -83 30 -11 0 -25 4 -30 8 -6 5 -22 13 -36
19 -23 10 -30 7 -77 -35z m9 -89 c9 -9 7 -11 -7 -8 -11 2 -22 4 -26 4 -5 1 -8
5 -8 10 0 12 27 8 41 -6z m57 -17 c13 1 30 -5 37 -13 8 -7 16 -13 17 -12 2 0
23 -7 48 -17 25 -10 50 -17 57 -16 16 4 26 -15 12 -24 -8 -5 -9 -3 -4 6 6 10
4 12 -9 7 -9 -4 -30 0 -45 8 -16 8 -31 12 -34 8 -3 -3 -22 5 -41 17 -20 12
-36 19 -36 15 0 -3 -9 -1 -20 5 -11 6 -20 16 -20 23 0 8 3 8 8 2 4 -6 17 -10
30 -9z m285 -168 c15 -28 25 -53 23 -56 -8 -8 -26 9 -26 24 0 9 -12 31 -26 50
-19 24 -22 34 -12 34 8 0 26 -23 41 -52z m67 3 c0 -16 -5 -42 -10 -57 -9 -23
-7 -33 8 -53 30 -42 34 -51 22 -51 -6 0 -15 11 -22 25 -6 13 -14 22 -18 20 -4
-3 -10 8 -13 23 -3 15 -1 30 5 33 5 3 9 9 9 13 -4 31 1 76 9 76 6 0 10 -13 10
-29z m44 -35 c19 -46 36 -54 37 -19 1 15 1 31 0 36 0 4 4 7 9 7 9 0 9 -58 1
-132 -2 -18 -21 -6 -21 13 0 11 -14 45 -30 75 -17 29 -26 54 -20 54 5 0 16
-15 24 -34z m105 -50 c-2 -2 -13 8 -23 22 l-19 27 24 -22 c12 -12 21 -24 18
-27z m-172 -66 c1 -11 -2 -22 -8 -25 -10 -7 -13 28 -2 38 9 9 9 10 10 -13z
m113 -14 c0 -3 -4 -8 -10 -11 -5 -3 -10 -1 -10 4 0 6 5 11 10 11 6 0 10 -2 10
-4z m43 -122 c24 -50 17 -52 -11 -3 -12 21 -19 39 -15 39 4 0 16 -17 26 -36z
m524 -110 c-3 -3 -12 -4 -19 -1 -8 3 -5 6 6 6 11 1 17 -2 13 -5z"/>
<path d="M5413 1162 c10 -10 17 -24 17 -30 0 -6 4 -13 9 -17 13 -8 5 33 -10
51 -6 8 -16 14 -22 14 -5 0 -3 -8 6 -18z"/>
<path d="M5362 950 c0 -8 4 -26 8 -40 6 -20 8 -21 8 -5 0 11 -3 29 -8 40 -5
12 -8 14 -8 5z"/>
<path d="M2686 712 c-3 -5 1 -9 9 -9 8 0 12 4 9 9 -3 4 -7 8 -9 8 -2 0 -6 -4
-9 -8z"/>
<path d="M4058 703 c7 -3 16 -2 19 1 4 3 -2 6 -13 5 -11 0 -14 -3 -6 -6z"/>
<path d="M2718 683 c6 -3 12 -11 12 -18 0 -8 3 -16 8 -18 4 -3 7 5 7 17 0 15
-6 22 -20 23 -11 1 -14 -1 -7 -4z"/>
<path d="M2675 652 c3 -19 7 -37 8 -42 1 -4 -2 -10 -8 -11 -5 -2 -10 3 -10 11
0 8 -6 25 -13 38 -18 32 -45 12 -32 -23 10 -26 4 -34 -20 -30 -12 2 -15 -9
-15 -51 0 -33 4 -53 10 -50 5 2 9 9 8 15 -4 16 2 14 18 -6 8 -9 9 -14 4 -11
-21 13 -43 -18 -46 -65 -3 -27 0 -47 6 -47 5 0 5 -4 -1 -8 -14 -8 -22 -121
-11 -139 4 -6 3 -15 -3 -18 -6 -4 -9 -1 -8 7 2 7 -2 12 -9 11 -8 -2 -10 4 -6
15 6 14 4 15 -9 4 -14 -11 -18 -9 -31 18 -9 17 -11 27 -5 24 7 -4 8 -2 4 4
-11 18 -26 14 -27 -5 0 -15 -2 -15 -9 2 -6 13 -8 -3 -7 -50 l0 -70 51 -24 c49
-23 55 -23 140 -12 49 6 93 14 97 17 11 7 -1 316 -13 331 -6 7 -5 19 1 32 14
25 10 55 -11 78 -8 10 -18 25 -21 33 -4 11 -6 10 -7 -5 l-1 -20 -8 20 c-5 11
-4 25 2 33 5 7 7 15 3 19 -3 3 -6 0 -6 -8 0 -12 -2 -11 -10 1 -8 11 -9 6 -5
-18z m-19 -39 c-3 -3 -1 -12 6 -20 9 -11 14 -11 28 2 15 14 19 13 36 -6 10
-11 14 -19 9 -17 -6 2 -11 -1 -11 -7 -1 -5 2 -9 6 -8 4 1 5 -8 2 -20 -5 -18
-7 -19 -10 -4 -2 9 -8 15 -13 11 -5 -3 -8 0 -7 7 2 7 -5 13 -14 14 -10 0 -17
-4 -15 -10 1 -5 5 -9 8 -8 13 4 4 -28 -11 -42 -15 -14 -18 -14 -30 0 -7 9 -8
15 -2 15 6 0 13 -6 16 -12 3 -7 5 -4 3 7 -2 15 -10 20 -33 19 -26 0 -31 3 -29
23 0 13 5 24 10 24 23 2 34 21 25 44 -12 31 0 40 18 14 8 -11 11 -23 8 -26z"/>
<path d="M2630 585 c-7 -8 -16 -13 -20 -10 -5 3 -7 -3 -6 -12 2 -10 11 -18 23
-18 11 0 28 -7 39 -15 18 -14 18 -14 2 6 -12 14 -14 24 -7 31 7 7 5 14 -4 22
-11 9 -17 8 -27 -4z m21 -18 c-6 -6 -18 -12 -27 -13 -14 -2 -14 0 1 17 10 10
22 16 27 13 6 -4 6 -10 -1 -17z"/>
<path d="M2691 586 c-10 -11 -9 -14 1 -12 14 2 23 15 15 22 -2 2 -10 -2 -16
-10z"/>
<path d="M4766 645 c-10 -26 -8 -27 27 -20 40 9 59 25 30 25 -12 0 -28 3 -36
6 -8 3 -17 -2 -21 -11z"/>
<path d="M4874 604 c-2 -27 5 -30 30 -11 17 12 16 14 -6 24 -20 9 -23 8 -24
-13z"/>
<path d="M2516 292 c-3 -6 -2 -13 4 -17 6 -4 7 -12 4 -18 -5 -9 -4 -9 6 0 8 7
9 16 2 28 -6 11 -12 14 -16 7z"/>
<path d="M2552 280 c0 -14 2 -19 5 -12 2 6 2 18 0 25 -3 6 -5 1 -5 -13z"/>
</g>
</svg>
